<?xml version="1.0" standalone="no"?>
<!DOCTYPE svg PUBLIC "-//W3C//DTD SVG 20010904//EN"
 "http://www.w3.org/TR/2001/REC-SVG-20010904/DTD/svg10.dtd">
<svg version="1.0" xmlns="http://www.w3.org/2000/svg"
 width="1852.000000pt" height="1150.000000pt" viewBox="0 0 1852.000000 1150.000000"
 preserveAspectRatio="xMidYMid meet">

<g transform="translate(0.000000,1150.000000) scale(0.100000,-0.100000)"
fill="#000000" stroke="none">
<path d="M5472 9978 c-9 -9 -12 -171 -12 -669 0 -590 2 -657 16 -663 9 -3 819
-6 1800 -6 1697 0 1784 -1 1775 -17 -5 -10 -33 -43 -61 -73 -54 -59 -62 -93
-27 -114 16 -9 24 -5 50 28 18 21 44 52 59 70 l27 31 1 -1902 0 -1903 -458 0
-458 0 -1860 756 c-1022 415 -1861 758 -1864 761 -3 3 4 3 15 0 11 -4 65 -11
120 -17 55 -6 113 -13 128 -17 23 -4 29 -2 34 16 l5 21 1607 2 1606 3 3 659
c1 478 -1 663 -9 672 -16 19 -6978 21 -6997 2 -17 -17 -17 -1309 0 -1326 9 -9
388 -12 1642 -12 l1631 0 45 -93 c35 -71 50 -93 67 -95 17 -3 26 3 33 23 15
40 12 66 -9 72 -18 5 -48 53 -33 53 4 0 473 -189 1042 -421 569 -231 1386
-563 1815 -737 l780 -317 -530 -5 -530 -5 0 -520 0 -520 1092 -5 1092 -5 -75
-90 c-77 -93 -87 -117 -55 -135 28 -15 40 -7 101 70 30 39 56 70 58 70 1 0 2
-245 2 -545 l0 -545 -842 0 c-464 0 -849 -4 -856 -8 -10 -7 -12 -130 -10 -583
l3 -574 1814 -3 c1332 -1 1817 1 1827 9 19 16 21 1128 2 1147 -9 9 -232 12
-940 12 l-928 0 0 551 c0 612 -5 576 66 473 40 -59 70 -74 110 -55 38 17 26
71 -15 71 -9 0 -32 23 -50 51 -19 28 -46 59 -60 68 -23 15 53 16 1119 21
l1145 5 0 520 0 520 -549 5 -550 5 250 106 c2001 855 3163 1349 3169 1349 3 0
5 -36 5 -80 0 -88 17 -120 63 -120 44 0 67 57 27 67 -18 5 -20 14 -20 84 0 77
1 79 30 94 26 13 219 15 1678 15 1268 0 1651 3 1660 12 9 9 12 171 12 669 0
590 -2 657 -16 663 -20 8 -6968 8 -6988 0 -14 -6 -16 -73 -16 -663 0 -498 3
-660 12 -669 9 -9 384 -12 1626 -12 1467 0 1612 -1 1598 -16 -18 -18 -19 -23
-6 -44 7 -11 25 -15 62 -13 49 1 51 0 28 -11 -14 -7 -777 -333 -1695 -725
l-1670 -711 -533 0 -532 0 0 1896 0 1897 59 -64 c73 -81 115 -105 154 -90 52
20 43 71 -13 71 -23 0 -44 17 -104 83 l-76 82 1631 3 c1186 1 1636 5 1646 13
18 16 20 1308 1 1327 -17 17 -6979 17 -6996 0z m6938 -663 l-1 -595 -3439 0
-3440 0 0 595 0 595 3440 0 3440 0 0 -595z m-4500 -2360 l0 -595 -3435 0
-3435 0 0 595 0 595 3435 0 3435 0 0 -595z m9320 0 l0 -595 -3440 0 -3440 0 0
595 0 595 3440 0 3440 0 0 -595z m-5770 -2720 l0 -445 -2235 0 -2235 0 0 445
0 445 2235 0 2235 0 0 -445z m-450 -2290 l0 -505 -1755 0 -1755 0 0 505 0 505
1755 0 1755 0 0 -505z"/>
<path d="M5992 9627 c-6 -7 -16 -60 -21 -117 -18 -175 -39 -270 -60 -270 -21
0 -53 75 -77 182 -34 148 -46 178 -76 178 -13 0 -29 -5 -36 -12 -16 -16 -15
-53 1 -70 7 -7 21 -51 31 -98 39 -180 90 -260 166 -260 49 0 72 27 93 112 27
109 50 318 38 345 -12 25 -42 31 -59 10z"/>
<path d="M6117 9548 c-9 -7 -19 -25 -22 -39 -5 -21 -2 -30 15 -42 28 -19 47
-12 66 24 26 51 -15 90 -59 57z"/>
<path d="M10377 9542 c-10 -10 -17 -22 -17 -27 0 -4 -8 -14 -17 -21 -15 -10
-18 -33 -21 -156 -3 -127 -6 -145 -23 -161 -16 -15 -19 -26 -13 -50 8 -39 19
-54 56 -73 26 -13 35 -13 86 1 70 21 125 73 142 135 29 106 -39 299 -122 350
-41 25 -51 25 -71 2z m67 -109 c35 -54 59 -147 53 -202 -4 -34 -12 -52 -36
-73 -59 -52 -61 -47 -61 142 0 105 4 170 10 170 5 0 21 -17 34 -37z"/>
<path d="M6580 9525 c-8 -10 -11 -33 -8 -64 4 -39 1 -50 -14 -60 -24 -15 -23
-48 2 -63 17 -11 20 -24 20 -81 0 -84 19 -134 55 -143 31 -8 92 17 101 41 10
24 -16 47 -48 43 l-28 -5 0 84 0 83 41 0 c49 0 79 15 79 38 0 30 -22 42 -76
42 l-52 0 -7 40 c-4 24 -14 44 -25 50 -24 13 -25 13 -40 -5z"/>
<path d="M8728 9510 c-24 -18 -32 -32 -59 -105 l-11 -30 -20 40 c-54 106 -139
135 -166 57 -12 -36 -4 -338 10 -365 6 -12 18 -17 36 -15 24 3 28 8 34 53 3
28 7 95 7 150 2 116 8 113 49 -31 26 -92 30 -99 55 -102 16 -2 29 2 31 10 2 7
13 56 24 108 40 188 57 193 72 19 12 -129 22 -161 56 -184 29 -19 39 -19 58 1
21 20 20 30 -5 55 -17 17 -23 40 -30 127 -11 126 -22 170 -50 206 -24 31 -57
33 -91 6z"/>
<path d="M7402 9508 c-15 -15 -16 -60 -1 -75 6 -6 14 -64 18 -130 9 -128 24
-176 57 -181 34 -5 46 19 35 69 -6 24 -14 97 -20 162 -9 123 -25 167 -59 167
-10 0 -23 -5 -30 -12z"/>
<path d="M6261 9492 c-12 -23 23 -288 41 -309 28 -34 68 -6 68 47 0 20 7 60
16 89 12 43 21 55 44 64 33 12 43 31 35 58 -9 26 -65 25 -99 -2 -29 -22 -33
-19 -38 36 -2 24 -8 31 -30 33 -18 2 -30 -3 -37 -16z"/>
<path d="M9506 9481 c-12 -5 -26 -29 -37 -62 -16 -48 -16 -57 -3 -76 7 -12 14
-39 14 -60 l0 -37 -17 24 c-24 34 -51 56 -95 76 -30 13 -36 20 -27 30 7 8 21
11 34 8 22 -5 55 17 55 37 0 15 -39 49 -57 49 -28 0 -97 -38 -127 -69 -45 -47
-32 -69 66 -116 46 -22 84 -47 86 -56 2 -9 -8 -23 -22 -32 -34 -23 -50 -25
-52 -7 0 8 -2 20 -2 27 -3 18 -41 26 -57 13 -10 -8 -15 -31 -15 -61 0 -41 4
-51 25 -65 50 -33 164 18 194 87 l18 40 6 -52 c8 -63 27 -95 73 -117 26 -12
39 -13 52 -6 25 17 21 56 -7 70 -36 18 -43 37 -49 130 l-5 84 51 0 c28 0 62
-5 76 -11 23 -11 25 -16 20 -53 -11 -74 32 -171 89 -203 42 -24 128 -11 140
20 11 29 -17 50 -68 51 -44 1 -49 4 -66 36 l-19 35 57 13 c32 7 66 20 75 29
24 22 23 58 -3 82 -25 23 -103 44 -131 35 -13 -4 -26 1 -38 14 -14 15 -38 22
-98 27 -72 6 -79 9 -75 26 6 21 -13 49 -31 48 -6 0 -20 -4 -30 -8z"/>
<path d="M6957 9473 c-14 -13 -6 -41 19 -68 24 -26 26 -34 22 -89 -5 -61 -34
-138 -53 -140 -19 -2 -56 133 -58 213 -2 71 -3 76 -25 79 -39 6 -52 -15 -52
-82 0 -114 44 -247 92 -280 52 -37 114 1 147 89 41 110 36 211 -14 261 -23 23
-64 32 -78 17z"/>
<path d="M7687 9461 c-122 -40 -140 -79 -60 -134 134 -92 154 -117 117 -144
-30 -22 -62 -16 -76 15 -15 32 -55 37 -72 9 -17 -27 20 -88 65 -105 47 -18
111 -2 151 38 55 56 29 132 -71 202 l-53 37 44 11 c95 25 93 24 93 55 0 28 -3
30 -40 32 -22 1 -66 -6 -98 -16z"/>
<path d="M7165 9435 c-39 -21 -55 -42 -55 -77 0 -18 7 -31 22 -39 19 -10 25
-8 47 20 27 32 54 40 67 19 4 -7 -10 -26 -35 -47 -23 -20 -50 -49 -61 -66 -25
-38 -26 -96 -2 -118 25 -23 80 -21 116 2 l29 19 41 -45 c33 -36 46 -44 63 -39
34 11 35 43 3 80 -39 43 -52 81 -44 123 5 26 2 41 -13 61 -11 15 -23 40 -27
55 -8 32 -58 67 -96 67 -14 0 -38 -7 -55 -15z m92 -209 c-3 -8 -16 -20 -28
-26 -17 -10 -20 -9 -14 2 24 41 55 59 42 24z"/>
<path d="M8972 9418 c-23 -12 -36 -43 -30 -75 4 -24 56 -31 64 -9 3 9 15 16
26 16 16 0 8 -14 -41 -71 -64 -74 -74 -104 -43 -132 24 -22 100 -22 129 -2 21
15 23 14 38 -9 39 -59 105 -71 105 -19 0 14 -11 36 -25 49 -26 24 -28 31 -45
141 -16 100 -36 123 -103 122 -29 0 -62 -5 -75 -11z m80 -200 c-7 -7 -12 -8
-12 -2 0 14 12 26 19 19 2 -3 -1 -11 -7 -17z"/>
<path d="M11202 9418 c-16 -16 -15 -33 4 -69 12 -24 21 -30 42 -27 24 3 27 7
26 40 -2 58 -40 88 -72 56z"/>
<path d="M11650 9404 c-17 -15 -38 -40 -46 -56 -18 -34 -23 -108 -11 -153 6
-26 5 -31 -10 -32 -10 -1 -44 -5 -75 -9 l-58 -7 0 28 c0 43 38 112 76 141 57
44 43 106 -21 90 -32 -8 -100 -105 -122 -172 -30 -95 11 -164 97 -164 51 0
121 21 133 40 10 17 13 17 42 -6 44 -33 92 -52 170 -64 75 -12 95 -4 95 36 0
25 -1 26 -102 43 -68 12 -111 32 -132 63 -23 33 -20 38 24 38 47 0 157 35 183
57 25 23 21 69 -8 99 -36 36 -86 54 -149 54 -44 0 -60 -5 -86 -26z m155 -67
c18 -9 17 -11 -16 -22 -19 -7 -54 -16 -77 -20 -34 -5 -42 -4 -42 8 0 9 12 25
27 37 28 21 63 21 108 -3z"/>
<path d="M10706 9405 c-48 -17 -61 -29 -85 -79 -16 -31 -21 -62 -21 -117 0
-87 19 -133 69 -166 69 -46 231 -17 231 42 0 35 -23 41 -86 21 -77 -24 -127
-5 -136 53 -3 20 4 25 54 41 136 42 180 104 120 171 -34 38 -94 52 -146 34z
m76 -76 c19 -10 19 -11 1 -23 -24 -17 -103 -47 -103 -40 0 3 7 18 15 34 21 40
49 49 87 29z"/>
<path d="M6108 9399 c-22 -12 -22 -39 -3 -103 8 -27 15 -61 15 -76 0 -15 9
-38 19 -51 16 -20 23 -22 38 -13 10 6 20 22 22 35 5 35 -29 188 -46 205 -17
16 -22 17 -45 3z"/>
<path d="M7915 9390 c-17 -19 -19 -40 -18 -230 1 -115 4 -214 8 -220 3 -5 15
-10 25 -10 25 0 50 48 50 93 0 32 4 37 55 61 95 47 140 125 116 199 -31 94
-185 164 -236 107z m131 -94 c43 -43 43 -70 -2 -112 -49 -47 -64 -45 -64 10 0
24 -3 64 -6 90 -6 43 -5 46 16 46 12 0 37 -15 56 -34z"/>
<path d="M8182 9398 c-16 -16 -15 -34 2 -66 20 -39 39 -128 31 -152 -14 -45
28 -87 60 -60 27 23 13 200 -15 200 -4 0 -6 9 -3 20 7 26 -22 70 -45 70 -10 0
-23 -5 -30 -12z"/>
<path d="M10944 9396 c-17 -13 -19 -27 -18 -128 0 -91 4 -122 21 -159 61 -135
203 -48 203 126 0 92 -45 153 -81 109 -10 -12 -10 -25 0 -63 10 -41 9 -55 -6
-101 -10 -30 -23 -55 -30 -57 -31 -10 -45 169 -17 212 15 23 14 26 -10 50 -29
29 -35 30 -62 11z"/>
<path d="M9980 9375 c-11 -13 -9 -33 8 -113 12 -53 24 -116 28 -140 10 -69 63
-81 83 -19 5 18 15 66 22 108 l11 76 37 -1 c31 -1 36 3 39 23 5 30 -43 81 -75
81 -26 0 -63 -32 -63 -55 0 -8 -4 -15 -10 -15 -5 0 -10 8 -10 18 0 20 -29 52
-47 52 -6 0 -16 -7 -23 -15z"/>
<path d="M11219 9284 c-16 -20 -24 -118 -12 -164 7 -25 15 -36 32 -38 13 -2
27 0 32 5 13 13 17 191 5 203 -15 15 -42 12 -57 -6z"/>
<path d="M1492 7268 c-5 -7 -15 -67 -21 -133 -15 -147 -38 -255 -56 -255 -28
0 -59 77 -90 225 -23 109 -39 137 -73 133 -35 -4 -53 -49 -30 -75 9 -10 25
-63 37 -118 34 -159 78 -231 152 -248 72 -18 110 75 140 340 10 91 10 115 -1
127 -15 19 -44 21 -58 4z"/>
<path d="M1616 7184 c-20 -19 -21 -68 -2 -83 19 -16 44 -4 62 30 26 52 -20 93
-60 53z"/>
<path d="M5883 7180 c-10 -11 -27 -30 -38 -42 -18 -20 -20 -40 -23 -168 -3
-111 -7 -147 -18 -153 -16 -9 -19 -60 -4 -88 50 -92 229 -28 270 97 36 108
-47 324 -137 361 -30 12 -35 11 -50 -7z m57 -100 c33 -46 60 -133 60 -191 0
-45 -4 -55 -34 -85 -63 -63 -66 -56 -66 136 0 98 4 170 9 170 5 0 19 -14 31
-30z"/>
<path d="M2085 7166 c-15 -11 -17 -22 -12 -64 5 -45 3 -53 -13 -62 -26 -14
-26 -46 0 -62 16 -11 20 -24 20 -73 0 -127 32 -170 109 -146 65 19 64 88 -1
79 l-28 -5 0 84 0 83 48 0 c53 0 72 12 72 46 0 27 -24 37 -82 32 l-42 -3 -9
43 c-9 49 -35 68 -62 48z"/>
<path d="M4234 7156 c-11 -8 -33 -43 -49 -77 l-28 -63 -20 40 c-39 78 -81 108
-129 92 -40 -14 -49 -58 -37 -192 5 -61 10 -136 12 -166 2 -54 3 -55 32 -55
27 0 30 4 37 40 4 22 7 90 8 150 1 102 2 108 15 83 8 -14 25 -65 37 -113 24
-98 44 -119 78 -85 12 12 20 33 20 52 0 34 35 174 50 198 5 8 11 12 14 9 3 -3
12 -65 20 -138 13 -122 16 -135 42 -162 30 -31 53 -36 72 -17 18 18 15 39 -8
63 -16 17 -22 44 -30 130 -11 122 -23 170 -53 203 -24 25 -54 28 -83 8z"/>
<path d="M2902 7148 c-15 -15 -16 -60 0 -76 7 -7 15 -61 19 -130 7 -135 21
-175 61 -180 32 -4 44 23 30 71 -6 17 -13 81 -16 141 -4 74 -12 121 -24 145
-18 38 -48 51 -70 29z"/>
<path d="M1767 7128 c-13 -20 -12 -41 5 -158 21 -139 28 -160 58 -160 26 0 37
19 43 75 12 95 25 125 63 141 30 12 35 19 32 42 -3 25 -6 27 -45 26 -25 0 -51
-8 -62 -18 -17 -15 -19 -16 -25 -1 -3 9 -4 21 -1 26 10 15 -15 49 -35 49 -11
0 -26 -10 -33 -22z"/>
<path d="M5002 7113 c-27 -25 -48 -107 -34 -136 6 -12 15 -61 20 -108 5 -47
16 -99 23 -114 31 -65 134 -87 127 -27 -2 16 -12 31 -27 39 -35 17 -41 33 -48
128 l-6 85 51 0 c28 0 63 -5 77 -12 23 -11 25 -15 19 -54 -11 -73 33 -168 92
-200 22 -12 44 -15 74 -11 91 12 94 70 3 75 -46 3 -51 6 -71 41 l-22 39 46 7
c84 12 113 38 102 91 -5 25 -71 56 -124 57 -32 0 -53 6 -66 19 -14 14 -34 18
-98 18 -77 0 -80 1 -70 19 13 25 13 27 -6 45 -20 21 -37 20 -62 -1z"/>
<path d="M2462 7108 c-18 -18 -15 -32 14 -63 24 -26 26 -34 22 -96 -5 -66 -32
-132 -53 -131 -20 0 -47 99 -54 192 -6 89 -7 95 -29 98 -38 6 -52 -15 -52 -75
0 -66 26 -185 51 -235 22 -42 54 -68 85 -68 87 0 163 202 120 315 -25 64 -73
94 -104 63z"/>
<path d="M3182 7096 c-85 -28 -102 -40 -102 -72 0 -17 12 -32 41 -52 135 -91
164 -128 120 -152 -34 -18 -59 -12 -73 18 -9 18 -21 27 -37 27 -36 0 -46 -24
-27 -68 31 -75 138 -87 203 -22 59 59 39 131 -56 201 -28 21 -48 41 -45 45 2
4 23 10 47 14 63 11 79 22 75 53 -3 23 -8 27 -38 29 -19 2 -68 -8 -108 -21z"/>
<path d="M4813 7089 c-44 -22 -93 -71 -93 -93 0 -18 40 -51 80 -66 55 -21 100
-50 100 -66 0 -8 -15 -23 -32 -34 l-33 -20 -8 29 c-8 34 -41 49 -63 30 -10 -9
-14 -27 -12 -63 3 -42 7 -53 29 -65 59 -33 199 48 199 115 0 46 -33 88 -94
120 -47 24 -54 31 -41 40 9 7 25 10 36 7 45 -12 66 44 27 71 -30 21 -45 20
-95 -5z"/>
<path d="M2680 7079 c-64 -26 -94 -96 -51 -119 26 -13 46 -5 59 26 12 25 45
33 58 13 3 -6 -16 -34 -44 -62 -58 -60 -72 -85 -72 -125 0 -58 73 -82 135 -43
l30 18 40 -45 c32 -35 45 -43 62 -38 30 10 36 35 16 63 -52 73 -62 97 -56 140
4 31 2 48 -10 61 -8 9 -22 34 -30 54 -24 56 -80 80 -137 57z m84 -201 c-13
-24 -37 -48 -47 -48 -6 0 2 14 18 30 31 32 41 38 29 18z"/>
<path d="M4490 7063 c-30 -11 -50 -37 -50 -64 0 -45 59 -63 74 -23 5 14 36 20
36 7 0 -3 -25 -32 -54 -63 -63 -66 -77 -101 -51 -130 26 -28 66 -33 114 -14
l42 17 38 -37 c41 -40 65 -45 81 -17 14 27 14 26 -20 65 -25 28 -33 50 -46
127 -20 116 -37 139 -103 138 -25 0 -53 -3 -61 -6z m80 -187 c0 -2 -8 -10 -17
-17 -16 -13 -17 -12 -4 4 13 16 21 21 21 13z"/>
<path d="M6700 7051 c-12 -23 2 -69 27 -88 24 -18 53 1 53 35 0 58 -57 96 -80
53z"/>
<path d="M7159 7047 c-19 -12 -42 -38 -51 -57 -20 -40 -24 -140 -7 -172 9 -17
9 -20 -3 -16 -8 4 -39 0 -68 -8 -66 -17 -86 -5 -75 44 8 40 61 122 78 122 21
0 39 47 27 71 -17 31 -54 23 -93 -21 -101 -111 -121 -252 -40 -289 51 -23 164
-6 185 29 11 17 13 17 42 -5 51 -38 90 -54 161 -65 76 -12 101 -8 108 19 8 32
-8 42 -87 56 -78 14 -139 43 -156 75 -15 28 -13 30 33 30 50 0 152 32 179 57
26 23 23 69 -7 99 -57 57 -165 72 -226 31z m146 -71 c17 -12 16 -14 -16 -24
-52 -17 -119 -26 -119 -16 0 5 7 20 16 32 12 17 25 22 58 22 23 0 51 -6 61
-14z"/>
<path d="M3432 7043 c-24 -10 -43 -62 -38 -106 13 -98 16 -236 6 -286 -11 -58
-2 -81 30 -81 27 0 42 25 49 82 6 49 8 53 41 62 43 13 126 91 135 129 17 67
-28 148 -106 188 -36 18 -89 24 -117 12z m113 -104 c47 -42 47 -76 -1 -118
-20 -18 -41 -30 -47 -28 -12 3 -29 153 -20 170 8 15 33 6 68 -24z"/>
<path d="M3680 7031 c-10 -20 2 -71 17 -71 5 0 9 -12 10 -27 12 -157 15 -172
35 -179 12 -3 26 0 35 9 21 20 20 121 -1 171 -9 21 -16 48 -16 61 0 25 -29 55
-53 55 -9 0 -21 -9 -27 -19z"/>
<path d="M6167 7021 c-50 -45 -70 -103 -66 -193 5 -83 28 -126 82 -155 73 -37
217 -3 217 53 0 34 -24 40 -81 20 -58 -21 -103 -14 -125 19 -23 36 -14 56 31
70 60 18 122 52 139 77 23 33 20 64 -13 100 -24 27 -36 32 -88 36 -56 4 -62 2
-96 -27z m118 -55 c18 -13 18 -14 -4 -25 -43 -24 -101 -40 -101 -30 0 15 56
69 72 69 8 0 23 -6 33 -14z"/>
<path d="M1595 7020 c-3 -11 1 -45 9 -77 8 -32 18 -74 21 -94 7 -45 26 -63 56
-54 20 7 21 12 16 69 -2 33 -12 87 -22 119 -15 52 -19 57 -45 57 -20 0 -31 -6
-35 -20z"/>
<path d="M6442 7028 c-8 -8 -12 -51 -12 -127 0 -95 4 -122 20 -156 31 -63 86
-82 132 -45 73 57 96 233 38 285 -15 13 -22 14 -40 5 -18 -10 -21 -17 -15 -43
13 -55 9 -121 -9 -154 -31 -61 -44 -39 -53 85 -4 56 -3 82 5 82 6 0 14 9 17
21 13 41 -52 78 -83 47z"/>
<path d="M5485 7016 c-18 -13 -18 -16 3 -103 12 -49 22 -98 22 -108 0 -44 21
-94 41 -100 33 -11 46 13 67 119 l18 100 35 0 c29 1 34 5 37 26 2 18 -6 34
-26 54 -38 35 -70 32 -97 -11 -24 -38 -32 -41 -37 -12 -2 12 -12 28 -24 35
-17 12 -23 12 -39 0z"/>
<path d="M6715 6910 c-15 -29 -18 -100 -6 -155 7 -32 43 -47 64 -26 13 13 16
181 4 199 -16 21 -46 13 -62 -18z"/>
<path d="M10812 7267 c-6 -7 -16 -67 -23 -133 -14 -145 -38 -249 -58 -249 -23
0 -57 82 -81 195 -32 152 -54 185 -99 154 -24 -17 -27 -50 -7 -73 8 -9 22 -54
31 -101 38 -189 98 -271 186 -258 48 7 78 93 104 302 13 102 14 139 6 155 -13
24 -43 28 -59 8z"/>
<path d="M10932 7188 c-32 -42 -20 -88 23 -88 31 0 59 53 44 81 -11 21 -51 25
-67 7z"/>
<path d="M15196 7184 c-9 -8 -16 -20 -16 -26 0 -6 -8 -17 -17 -24 -15 -10 -18
-33 -21 -156 -3 -126 -6 -145 -23 -161 -32 -29 -9 -96 42 -122 70 -37 204 43
229 137 29 105 -39 297 -122 348 -40 24 -52 25 -72 4z m104 -193 c24 -76 25
-122 5 -161 -13 -25 -60 -60 -80 -60 -3 0 -5 80 -5 178 l1 177 30 -35 c16 -19
39 -64 49 -99z"/>
<path d="M11400 7165 c-8 -10 -11 -33 -8 -64 4 -39 1 -50 -14 -60 -23 -15 -23
-48 1 -60 16 -9 20 -25 22 -95 4 -74 7 -88 29 -111 27 -29 62 -29 107 0 40 27
23 69 -26 67 l-31 -1 0 80 0 79 33 1 c63 2 82 12 82 44 0 30 -1 30 -61 33
l-62 3 -7 37 c-11 59 -38 79 -65 47z"/>
<path d="M13537 7140 c-14 -16 -31 -46 -37 -67 -18 -56 -25 -58 -45 -13 -21
47 -77 100 -104 100 -10 0 -29 -9 -42 -19 -24 -19 -24 -20 -21 -197 2 -98 8
-186 13 -196 12 -22 42 -23 59 -3 8 10 14 65 18 153 5 132 6 136 20 102 8 -19
24 -71 36 -115 20 -77 22 -80 50 -80 28 0 29 2 47 87 9 48 25 111 34 139 23
69 32 51 46 -93 12 -125 21 -152 62 -182 l27 -20 22 22 22 22 -23 31 c-18 24
-25 51 -31 128 -15 172 -41 231 -100 231 -19 0 -36 -9 -53 -30z"/>
<path d="M12217 7153 c-11 -11 -8 -68 5 -81 6 -6 14 -63 18 -129 7 -127 22
-176 56 -181 35 -5 47 21 35 75 -5 27 -14 98 -19 159 -9 123 -26 164 -66 164
-12 0 -26 -3 -29 -7z"/>
<path d="M11080 7130 c-10 -18 0 -105 28 -264 8 -46 33 -67 60 -50 11 8 19 30
24 71 9 81 30 128 65 145 59 28 28 91 -34 67 -15 -6 -36 -17 -45 -26 -16 -14
-18 -14 -24 0 -3 9 -4 22 -1 29 14 41 -52 67 -73 28z"/>
<path d="M11788 7119 c-25 -14 -22 -36 8 -72 24 -28 26 -37 22 -92 -5 -62 -41
-150 -58 -140 -22 14 -51 142 -54 237 -1 47 -3 53 -24 56 -39 6 -52 -15 -52
-82 0 -114 44 -247 92 -280 73 -51 156 44 175 201 7 64 -16 133 -54 163 -29
23 -32 23 -55 9z"/>
<path d="M14320 7121 c-8 -6 -22 -34 -32 -63 -15 -47 -15 -56 -2 -75 7 -12 14
-39 14 -60 l0 -38 -20 32 c-11 19 -41 43 -72 59 -29 14 -55 28 -58 31 -10 9
26 23 47 18 25 -6 55 20 51 43 -5 24 -50 46 -79 39 -42 -11 -119 -68 -125 -93
-9 -34 9 -52 93 -90 83 -38 98 -58 62 -85 -25 -19 -65 -26 -54 -9 9 15 -14 50
-33 50 -29 0 -42 -21 -42 -71 0 -57 17 -74 72 -72 58 3 126 46 147 94 l18 40
6 -53 c8 -63 32 -98 80 -117 30 -11 40 -11 52 -1 24 20 18 49 -15 68 -38 22
-41 30 -47 130 l-6 82 59 0 c76 -1 95 -15 87 -63 -9 -57 15 -125 62 -174 43
-44 60 -49 124 -37 74 15 56 79 -21 79 -36 0 -45 5 -65 34 -28 41 -23 51 25
51 20 0 52 9 70 20 28 17 33 25 30 52 -4 43 -52 71 -122 72 -29 1 -55 7 -61
14 -13 17 -77 31 -135 32 -44 0 -45 1 -45 33 0 27 -4 32 -25 35 -14 1 -32 -2
-40 -7z"/>
<path d="M12493 7096 c-76 -28 -93 -41 -93 -72 0 -17 16 -34 63 -65 118 -79
144 -119 91 -140 -34 -12 -57 -5 -69 23 -12 28 -47 35 -64 14 -17 -20 2 -80
32 -101 28 -19 110 -19 147 0 90 47 77 142 -30 223 -25 19 -46 37 -48 41 -1 4
26 14 60 22 60 14 63 16 63 44 0 29 -2 30 -45 32 -28 2 -69 -7 -107 -21z"/>
<path d="M11973 7070 c-53 -32 -60 -102 -10 -108 21 -3 29 2 39 22 7 17 19 26
34 26 40 0 39 -21 -4 -57 -82 -68 -108 -155 -57 -189 30 -20 88 -14 116 12 18
16 21 15 63 -30 38 -42 47 -46 64 -37 33 18 36 31 13 59 -42 54 -55 87 -56
145 0 45 -4 61 -18 68 -9 6 -17 19 -17 30 0 11 -13 34 -29 50 -36 35 -90 39
-138 9z m102 -204 c-17 -25 -52 -46 -39 -23 13 22 37 47 46 47 5 0 1 -11 -7
-24z"/>
<path d="M13792 7058 c-23 -12 -36 -43 -30 -75 5 -26 46 -29 69 -4 20 22 39
28 39 13 0 -5 -10 -17 -21 -28 -43 -38 -99 -116 -99 -138 0 -13 8 -30 18 -39
23 -21 101 -22 128 -3 17 14 23 11 61 -26 44 -43 63 -45 82 -9 9 17 6 26 -19
55 -25 28 -33 51 -49 137 -13 73 -23 106 -36 116 -22 16 -110 16 -143 1z m92
-182 c-3 -8 -13 -17 -22 -21 -13 -5 -13 -2 3 15 21 24 26 25 19 6z"/>
<path d="M16020 7055 c-10 -12 -10 -23 2 -53 12 -31 18 -37 43 -37 28 0 30 2
29 37 -2 60 -43 90 -74 53z"/>
<path d="M16470 7044 c-17 -15 -38 -40 -47 -58 -18 -35 -22 -131 -6 -161 12
-22 6 -23 -102 -28 -40 -2 -40 -2 -39 35 1 42 46 120 78 134 29 12 35 69 8 83
-29 16 -63 -8 -109 -77 -73 -108 -80 -188 -22 -236 34 -29 68 -32 144 -13 32
8 53 20 59 33 9 19 10 19 40 -8 38 -35 92 -56 174 -66 72 -10 96 0 90 38 -3
22 -11 26 -73 36 -90 16 -120 28 -150 60 -33 36 -31 44 9 44 41 0 153 34 184
55 30 22 29 69 -3 101 -36 36 -86 54 -149 54 -44 0 -60 -5 -86 -26z m133 -55
c20 -5 37 -14 37 -18 0 -11 -79 -31 -119 -31 -38 0 -39 12 -5 39 31 24 36 25
87 10z"/>
<path d="M15535 7053 c-73 -19 -115 -95 -115 -204 0 -123 44 -180 147 -187 43
-3 70 2 106 17 43 19 48 24 45 48 -4 34 -29 40 -89 20 -69 -23 -129 4 -129 59
0 16 8 23 30 28 17 3 55 17 86 32 69 33 98 79 74 121 -29 50 -100 81 -155 66z
m74 -87 c9 -11 2 -18 -38 -35 -67 -28 -75 -27 -56 8 21 41 70 56 94 27z"/>
<path d="M10920 7034 c-11 -12 -10 -28 3 -87 10 -40 17 -82 17 -94 0 -13 9
-32 20 -43 16 -16 25 -18 40 -10 26 14 26 63 1 160 -23 87 -50 112 -81 74z"/>
<path d="M12736 7031 c-18 -20 -20 -37 -19 -231 1 -115 4 -214 8 -220 3 -5 15
-10 25 -10 26 0 50 48 50 98 0 35 3 40 28 45 41 8 117 71 137 113 31 65 9 125
-68 188 -50 40 -132 49 -161 17z m137 -99 c37 -35 35 -67 -9 -108 -54 -52 -60
-47 -67 53 -3 49 -3 91 0 96 6 10 42 -10 76 -41z"/>
<path d="M13002 7038 c-16 -16 -15 -39 1 -63 20 -29 38 -126 31 -161 -5 -25
-2 -35 17 -47 16 -12 27 -13 41 -6 15 8 18 22 18 75 0 38 -7 80 -16 102 -10
20 -16 45 -15 54 6 46 -46 77 -77 46z"/>
<path d="M15768 7040 c-38 -23 -31 -254 10 -309 53 -72 122 -58 167 33 24 48
27 65 23 126 -4 81 -28 118 -68 105 -20 -6 -22 -11 -15 -49 12 -64 9 -110 -10
-150 -16 -33 -20 -35 -32 -23 -23 22 -30 169 -10 197 17 24 12 48 -12 67 -19
15 -31 15 -53 3z"/>
<path d="M14800 7015 c-7 -8 -10 -25 -7 -37 3 -13 15 -70 26 -128 29 -143 28
-140 61 -140 33 0 42 20 61 143 11 74 13 78 35 73 58 -15 73 32 25 78 -39 38
-80 33 -101 -11 -17 -37 -30 -43 -30 -14 0 22 -25 51 -44 51 -8 0 -19 -7 -26
-15z"/>
<path d="M16036 6918 c-20 -27 -21 -132 -3 -168 13 -26 43 -38 58 -23 13 13
17 191 5 203 -17 17 -44 11 -60 -12z"/>
<path d="M7522 4453 c-5 -10 -12 -58 -14 -108 -3 -49 -12 -105 -20 -124 l-14
-35 -23 79 c-13 44 -24 93 -25 109 -2 52 -83 83 -100 39 -13 -32 -47 -307 -44
-352 3 -39 6 -46 26 -49 36 -5 52 15 52 67 0 25 3 70 7 100 l6 54 28 -62 c19
-42 36 -64 53 -71 37 -14 73 6 88 46 14 39 23 37 32 -7 9 -47 44 -98 72 -105
32 -8 64 20 64 57 0 21 -6 29 -29 37 -32 11 -39 31 -72 211 -10 57 -24 110
-30 117 -16 19 -47 17 -57 -3z"/>
<path d="M10316 4414 c-20 -19 -20 -30 -1 -84 8 -24 14 -44 13 -44 -2 -1 -16
-6 -32 -11 -64 -22 -59 -81 7 -79 l35 1 5 -55 c7 -66 31 -103 78 -118 45 -16
71 -2 67 34 -2 19 -10 28 -26 30 -27 4 -39 25 -43 77 l-4 40 49 0 c60 0 81 22
52 54 -14 15 -31 21 -63 21 -26 0 -45 5 -47 13 -30 103 -40 126 -52 131 -21 8
-20 8 -38 -10z"/>
<path d="M8445 4413 c-143 -32 -211 -97 -156 -152 10 -10 63 -33 117 -51 55
-18 103 -36 108 -40 11 -11 -65 -49 -105 -54 -31 -4 -49 -19 -49 -43 0 -14 27
-43 41 -43 25 0 122 41 164 70 42 29 46 35 43 68 -4 47 -41 72 -154 107 -47
14 -82 30 -79 35 9 14 105 31 160 28 47 -3 50 -2 53 24 5 46 -60 70 -143 51z"/>
<path d="M9480 4398 c-19 -21 -36 -67 -57 -163 l-10 -40 -31 70 c-48 108 -56
120 -79 123 -14 2 -28 -7 -42 -26 -18 -26 -21 -46 -23 -183 l-3 -154 23 -3
c36 -5 52 15 53 67 1 25 5 60 9 76 8 34 7 34 42 -64 13 -35 31 -69 41 -75 35
-22 50 4 84 143 17 73 34 135 36 138 5 5 17 -48 37 -167 14 -81 42 -145 68
-159 31 -17 60 -13 72 9 8 16 5 24 -19 49 -24 25 -32 45 -46 128 -9 54 -23
121 -31 149 -26 96 -79 130 -124 82z"/>
<path d="M7719 4359 c-13 -26 -7 -153 11 -213 6 -21 28 -56 49 -78 43 -47 95
-56 132 -22 38 33 69 113 69 178 0 66 5 66 60 -4 l30 -38 -35 -58 c-41 -69
-48 -136 -16 -154 11 -5 26 -7 35 -4 18 7 30 39 21 54 -4 6 6 31 21 57 l27 46
34 -41 c35 -43 59 -52 81 -30 19 19 15 33 -29 88 -44 55 -44 64 -6 132 17 31
18 40 7 53 -24 29 -58 18 -80 -26 l-21 -41 -35 41 c-37 43 -79 55 -91 26 -5
-13 -8 -12 -20 5 -11 15 -23 20 -45 18 -46 -4 -56 -28 -28 -66 19 -25 21 -38
16 -74 -4 -24 -16 -59 -27 -77 l-20 -33 -24 22 c-31 29 -48 102 -43 187 l3 68
-32 3 c-24 2 -34 -2 -44 -19z"/>
<path d="M10636 4357 c-58 -32 -89 -95 -84 -170 5 -68 26 -100 91 -141 64 -39
170 -49 207 -18 20 17 23 24 14 39 -9 14 -28 19 -85 23 -48 4 -84 13 -102 24
l-28 19 48 28 c133 77 168 167 78 204 -49 21 -94 18 -139 -8z m104 -66 c0 -5
-21 -23 -47 -40 -45 -30 -63 -37 -63 -26 0 14 31 64 42 68 22 9 68 7 68 -2z"/>
<path d="M8972 4354 c-37 -26 -23 -84 20 -84 9 0 22 9 28 19 26 50 -6 94 -48
65z"/>
<path d="M10044 4336 c-33 -15 -74 -60 -74 -82 0 -31 26 -65 86 -109 35 -25
64 -53 64 -60 0 -24 -35 -37 -64 -24 -50 23 -75 -19 -40 -69 19 -28 61 -29
114 -2 100 51 93 128 -19 210 -46 34 -58 47 -49 57 14 18 44 16 75 -4 25 -16
26 -16 45 6 16 21 17 26 5 45 -29 44 -86 57 -143 32z"/>
<path d="M9734 4321 c-35 -21 -45 -46 -33 -79 10 -26 56 -31 66 -6 6 16 52 38
61 30 3 -3 -19 -36 -47 -73 -44 -56 -51 -73 -49 -102 4 -48 41 -63 94 -37 37
17 37 17 64 -9 31 -30 66 -31 84 -3 8 14 4 24 -22 51 -31 32 -32 36 -33 121
-1 111 -12 126 -96 126 -39 0 -68 -6 -89 -19z"/>
<path d="M10890 4315 c-11 -13 -8 -31 14 -104 15 -49 30 -110 34 -136 13 -91
73 -88 82 3 6 53 25 82 74 113 23 14 33 15 47 6 27 -17 54 3 54 39 0 62 -90
64 -167 3 -40 -32 -40 -32 -58 26 -7 22 -17 46 -23 53 -13 17 -42 15 -57 -3z"/>
<path d="M8682 4308 c-30 -15 -35 -41 -24 -124 5 -38 7 -126 5 -195 -4 -135 3
-158 45 -144 23 7 32 33 32 95 0 40 4 47 36 68 51 33 94 106 94 159 0 112 -97
184 -188 141z m98 -87 c16 -31 12 -87 -9 -112 -11 -13 -21 -22 -24 -19 -5 5
-11 110 -8 138 2 19 29 14 41 -7z"/>
<path d="M8976 4224 c-24 -24 -22 -164 2 -194 13 -16 24 -21 38 -16 19 6 20
14 19 104 0 53 -4 103 -8 110 -11 17 -32 15 -51 -4z"/>
<path d="M7800 2190 c-60 -20 -90 -49 -90 -86 0 -35 63 -92 152 -139 86 -45
84 -49 -22 -61 -63 -7 -87 -25 -74 -58 10 -25 42 -28 126 -12 125 24 170 58
147 110 -8 18 -43 41 -108 75 -123 64 -141 77 -121 91 8 5 30 13 48 16 27 5
36 2 48 -15 21 -29 48 -26 78 10 29 34 31 42 16 70 -9 16 -22 19 -78 19 -39
-1 -90 -9 -122 -20z"/>
<path d="M8629 2168 c-7 -14 -9 -46 -5 -92 3 -39 9 -120 12 -181 4 -60 11
-116 17 -122 14 -18 54 -16 61 3 3 9 6 75 6 147 l0 132 32 -50 c17 -27 46 -84
64 -125 25 -58 38 -76 55 -78 41 -7 49 21 49 162 0 153 12 158 41 14 22 -109
35 -144 63 -169 24 -23 49 -24 70 -4 14 14 17 14 36 -5 11 -11 32 -20 48 -20
29 0 107 33 132 55 14 12 20 8 50 -33 38 -50 68 -63 90 -37 12 14 12 21 -3 43
-44 70 -67 129 -67 174 0 64 -32 135 -67 149 -33 13 -147 6 -185 -12 -35 -15
-54 -59 -38 -88 14 -28 60 -29 67 -1 6 23 35 33 83 28 l32 -3 -67 -75 c-37
-41 -74 -89 -82 -107 l-16 -31 -23 21 c-18 17 -29 47 -44 120 -11 55 -27 114
-36 133 -19 39 -58 74 -83 74 -41 0 -81 -71 -81 -145 l0 -30 -26 40 c-15 22
-47 61 -72 88 -52 53 -93 63 -113 25z m655 -245 c-20 -26 -64 -61 -64 -49 0 3
16 24 36 46 40 44 60 46 28 3z"/>
<path d="M9830 2150 c-8 -16 -7 -26 5 -42 22 -32 19 -53 -11 -66 -33 -16 -31
-65 4 -70 21 -3 22 -8 22 -87 0 -64 4 -88 18 -105 23 -28 92 -39 111 -17 18
22 5 56 -25 63 -23 6 -24 10 -24 84 0 44 3 81 8 83 4 3 32 8 63 12 l57 7 -5
-65 c-3 -36 -3 -77 1 -90 9 -38 55 -88 101 -108 75 -35 195 -16 195 31 0 28
-18 35 -97 35 -62 0 -75 3 -97 24 -39 36 -34 56 14 57 85 4 168 82 140 134
-24 45 -127 65 -182 36 -16 -8 -28 -11 -28 -6 0 21 -40 29 -103 22 l-65 -8
-20 48 c-17 39 -25 48 -46 48 -15 0 -30 -8 -36 -20z m390 -155 c0 -9 -51 -25
-61 -19 -17 10 1 24 32 24 16 0 29 -2 29 -5z"/>
<path d="M9514 2096 c-35 -35 -44 -50 -44 -79 0 -48 35 -76 133 -106 42 -14
77 -28 77 -33 0 -4 -18 -17 -40 -28 -32 -16 -44 -18 -64 -9 -52 24 -76 -33
-30 -70 33 -26 57 -26 110 -2 64 29 114 78 114 112 0 42 -27 63 -121 94 -101
33 -108 38 -84 65 23 26 51 26 58 0 6 -23 45 -28 65 -8 20 20 14 48 -17 79
-23 23 -38 29 -72 29 -36 0 -48 -6 -85 -44z"/>
<path d="M8386 2098 c-23 -32 -4 -60 37 -56 25 2 33 8 35 27 3 15 -3 30 -14
38 -25 18 -41 16 -58 -9z"/>
<path d="M8104 2063 c-15 -15 -16 -33 -10 -166 10 -226 30 -292 84 -285 37 4
51 32 29 56 -10 11 -19 38 -20 62 -2 41 -1 42 42 57 59 20 117 57 137 88 37
57 -13 134 -112 170 -27 10 -53 22 -58 27 -17 14 -74 9 -92 -9z m128 -92 c48
-20 73 -45 63 -61 -3 -6 -24 -19 -46 -30 -32 -17 -42 -18 -59 -8 -11 7 -20 22
-20 34 0 12 -3 36 -6 53 -8 37 4 40 68 12z"/>
<path d="M10397 2069 c-21 -12 -22 -39 -1 -87 8 -20 16 -71 17 -113 2 -79 15
-109 46 -109 31 0 41 23 41 90 0 98 52 167 102 136 13 -8 23 -8 36 0 25 16 26
40 3 63 -30 30 -88 28 -135 -4 -44 -30 -42 -30 -49 -6 -7 26 -38 42 -60 30z"/>
<path d="M8446 1924 c-11 -11 -16 -35 -16 -79 0 -64 14 -95 44 -95 26 0 36 26
36 95 0 89 -24 119 -64 79z"/>
</g>
</svg>
